<?xml version="1.0" encoding="UTF-8"?>
<svg version="1.1" xmlns="http://www.w3.org/2000/svg" width="200" height="75">
<path d="M0 0 C66 0 132 0 200 0 C200 24.75 200 49.5 200 75 C134 75 68 75 0 75 C0 50.25 0 25.5 0 0 Z " fill="#FCFDFD" transform="translate(0,0)"/>
<path d="M0 0 C0.99 0 1.98 0 3 0 C4.19052719 1.39461757 5.37203618 2.79811162 6.50268555 4.24169922 C8.09058044 6.10636888 9.77419839 7.61556068 11.64453125 9.1953125 C16.11666171 13.05461248 20.32233534 17.13870354 24.5 21.3125 C25.22703125 22.02728516 25.9540625 22.74207031 26.703125 23.47851562 C27.38890625 24.16236328 28.0746875 24.84621094 28.78125 25.55078125 C29.40064453 26.16606689 30.02003906 26.78135254 30.65820312 27.4152832 C32 29 32 29 32 31 C25.38685792 34.93974422 19.76272533 37.48033367 12 36 C5.05578168 33.69877729 0.45253344 30.46784649 -3 24 C-3.433125 23.236875 -3.86625 22.47375 -4.3125 21.6875 C-5.9781019 15.17651076 -5.80098267 9.80367708 -2.5 3.875 C-1.68733928 2.57022807 -0.86115854 1.27328441 0 0 Z " fill="#39BEE3" transform="translate(14,25)"/>
<path d="M0 0 C-1.65863505 4.32504836 -4.871041 7.09418825 -8.125 10.25 C-8.68832031 10.80429687 -9.25164063 11.35859375 -9.83203125 11.9296875 C-11.21686028 13.29104485 -12.60783204 14.64614859 -14 16 C-19.79820659 13.32977328 -24.76723277 8.7406993 -29 4 C-29 3.34 -29 2.68 -29 2 C-29.66 1.67 -30.32 1.34 -31 1 C-29.92250558 0.17977251 -28.83770492 -0.63086169 -27.75 -1.4375 C-27.14671875 -1.88996094 -26.5434375 -2.34242187 -25.921875 -2.80859375 C-17.3752697 -8.10679419 -7.87672805 -4.69251884 0 0 Z " fill="#B592FA" transform="translate(46,23)"/>
<path d="M0 0 C0.99 0 1.98 0 3 0 C4.17768565 1.37957462 5.34708486 2.7676106 6.4609375 4.19921875 C9.28495672 7.50346459 12.67686498 10.2128545 16 13 C15.1433706 17.3287124 13.23790978 18.97325825 10 22 C9.4121875 22.61875 8.824375 23.2375 8.21875 23.875 C7.6103125 24.514375 7.001875 25.15375 6.375 25.8125 C5.80523437 26.41707031 5.23546875 27.02164063 4.6484375 27.64453125 C3 29 3 29 0 29 C-3.90019467 22.45324465 -6.58192577 16.70276163 -5 9 C-3.61642631 5.78915485 -1.95690264 2.89342033 0 0 Z " fill="#025CF9" transform="translate(14,25)"/>
<path d="M0 0 C3.20249944 2.26058784 4.52525547 3.64880402 5.8125 7.3125 C5.874375 7.869375 5.93625 8.42625 6 9 C4.02 9 2.04 9 0 9 C-0.33 8.01 -0.66 7.02 -1 6 C-2.45742463 5.91903197 -3.91612807 5.86082226 -5.375 5.8125 C-6.59316406 5.76029297 -6.59316406 5.76029297 -7.8359375 5.70703125 C-8.55007812 5.80371094 -9.26421875 5.90039062 -10 6 C-12.80722691 10.21084037 -11.94537893 12.11554218 -11 17 C-8.21136993 18.39431504 -6.07921132 18.25660094 -3 18 C-2.34 17.01 -1.68 16.02 -1 15 C2.625 14.8125 2.625 14.8125 6 15 C4.6396147 19.45217009 3.11130825 21.73458525 -1 24 C-6.19800409 24.7738382 -10.48061022 24.89923069 -15.0625 22.1875 C-18.72552068 18.05183149 -19.43736895 15.63323356 -19.32421875 10.2890625 C-18.82794178 6.78522751 -17.2635642 4.65160378 -15 2 C-10.33481311 -1.11012459 -5.45887894 -0.72932391 0 0 Z " fill="#0F0F0F" transform="translate(74,28)"/>
<path d="M0 0 C1.65 0 3.3 0 5 0 C5.33 0.66 5.66 1.32 6 2 C6.66 1.34 7.32 0.68 8 0 C10.4375 0.375 10.4375 0.375 13 1 C16.02559518 1.11168808 16.02559518 1.11168808 19 0.3125 C22 0 22 0 23.67578125 1 C25.69773399 4.05380473 25.31595663 7.15988336 25.1875 10.6875 C25.16719727 11.7403418 25.16719727 11.7403418 25.14648438 12.81445312 C25.11120182 14.54329829 25.05739583 16.27174765 25 18 C23.35 18 21.7 18 20 18 C20 14.04 20 10.08 20 6 C18.35 6 16.7 6 15 6 C15 9.96 15 13.92 15 18 C13.35 18 11.7 18 10 18 C10 14.04 10 10.08 10 6 C8.35 6 6.7 6 5 6 C5 9.96 5 13.92 5 18 C3.35 18 1.7 18 0 18 C0 12.06 0 6.12 0 0 Z " fill="#0F0F0F" transform="translate(120,34)"/>
<path d="M0 0 C2.8125 1.0625 2.8125 1.0625 5 3 C5.8125 6.6875 5.8125 6.6875 6 10 C2.04 10 -1.92 10 -6 10 C-5.67 10.66 -5.34 11.32 -5 12 C-3.33388095 12.042721 -1.66617115 12.04063832 0 12 C0.33 11.67 0.66 11.34 1 11 C2.66617115 10.95936168 4.33388095 10.957279 6 11 C5.6875 13.375 5.6875 13.375 5 16 C0.95962368 18.69358421 -2.25922471 18.65035907 -7 18 C-9.5625 16.625 -9.5625 16.625 -11 14 C-11.59667987 10.54614154 -11.658648 7.44787911 -11 4 C-7.78831104 0.03261953 -4.98873786 -0.72752427 0 0 Z " fill="#1C1C1C" transform="translate(110,34)"/>
<path d="M0 0 C1.98 0 3.96 0 6 0 C6.33 0.66 6.66 1.32 7 2 C7.99 1.34 8.98 0.68 10 0 C10.99 0 11.98 0 13 0 C13 2.31 13 4.62 13 7 C11.02 7.33 9.04 7.66 7 8 C6.67 11.3 6.34 14.6 6 18 C4.02 18 2.04 18 0 18 C0 12.06 0 6.12 0 0 Z " fill="#111111" transform="translate(83,34)"/>
<path d="M0 0 C1.32 0 2.64 0 4 0 C5.18681726 3.56045177 5.09689832 6.43808337 5.0625 10.1875 C5.05347656 11.45980469 5.04445313 12.73210938 5.03515625 14.04296875 C5.02355469 15.01878906 5.01195313 15.99460937 5 17 C3.35 17 1.7 17 0 17 C0 11.39 0 5.78 0 0 Z " fill="#040404" transform="translate(120,35)"/>
<path d="M0 0 C1.13199353 0.9080162 2.25532363 1.82683826 3.375 2.75 C4.00148438 3.26046875 4.62796875 3.7709375 5.2734375 4.296875 C7.08312318 6.08199481 8.00117455 7.67949644 9 10 C2.42577466 13.91655978 -3.27362379 16.54527524 -11 15 C-14.51030176 13.60549656 -17.75729452 11.93182454 -21 10 C-17.79937313 8.39968656 -15.27728194 9.96826309 -12 11 C-12 11.66 -12 12.32 -12 13 C-5.90218999 13.22084624 -0.78357065 13.01167675 5 11 C3.88145414 7.27385847 3.88145414 7.27385847 1 5 C0.375 2.4375 0.375 2.4375 0 0 Z " fill="#61BDD5" transform="translate(37,46)"/>
<path d="M0 0 C0.99 0.33 1.98 0.66 3 1 C2.875 2.75 2.875 2.75 2 5 C-2.77312957 8.93081258 -6.54936436 9.73854852 -12.5 10 C-13.23347656 10.06316406 -13.96695312 10.12632813 -14.72265625 10.19140625 C-20.13651109 10.49163791 -22.79248775 9.40861752 -27 6 C-26.67 5.34 -26.34 4.68 -26 4 C-24.576875 4.7425 -24.576875 4.7425 -23.125 5.5 C-17.7949491 7.75046594 -12.10648441 8.19400649 -6.65234375 6.09765625 C-5.27826399 5.39690051 -3.92211995 4.65895603 -2.59375 3.875 C-1 3 -1 3 1 3 C0.67 2.01 0.34 1.02 0 0 Z " fill="#D9FAFC" transform="translate(45,53)"/>
<path d="M0 0 C3.37462715 0.54723683 5.08235 1.0549 8 3 C6.38989473 7.07376031 3.46177729 9.76507069 0.375 12.75 C-0.140625 13.25660156 -0.65625 13.76320313 -1.1875 14.28515625 C-2.45383339 15.52803902 -3.7263144 16.76465276 -5 18 C-5.66 17.01 -6.32 16.02 -7 15 C-6.01 15 -5.02 15 -4 15 C-4 14.01 -4 13.02 -4 12 C-3.01 12 -2.02 12 -1 12 C-1.33 10.35 -1.66 8.7 -2 7 C0.07553648 6.4465236 1.84365964 6 4 6 C4 4.68 4 3.36 4 2 C2.68 1.34 1.36 0.68 0 0 Z " fill="#B69DE8" transform="translate(38,20)"/>
<path d="M0 0 C0 3 0 3 -1 6 C-2 7 -3 8 -4 9 C-4.474375 9.86625 -4.94875 10.7325 -5.4375 11.625 C-7 14 -7 14 -9 14.9375 C-11 15 -11 15 -14 13 C-13.48050781 12.55269531 -12.96101563 12.10539062 -12.42578125 11.64453125 C-8.47271327 8.21756474 -4.64374393 4.75416041 -1 1 C-0.67 0.67 -0.34 0.34 0 0 Z " fill="#3CB3F3" transform="translate(29,41)"/>
<path d="M0 0 C0.99 0 1.98 0 3 0 C3 0.66 3 1.32 3 2 C2.01 2.495 2.01 2.495 1 3 C-3.67800158 10.01700237 -2.37703342 18.08205782 -1 26 C-4.46522241 22.53477759 -5.1773211 19.03729175 -5.4375 14.25 C-5.36068724 8.56585584 -3.12841606 4.6255866 0 0 Z " fill="#2D67D2" transform="translate(14,25)"/>
<path d="M0 0 C1.65 0 3.3 0 5 0 C5.33 0.66 5.66 1.32 6 2 C6.66 1.34 7.32 0.68 8 0 C10.125 0.375 10.125 0.375 12 1 C12 4.41775006 11.75017896 7.77881173 11.5 11.1875 C11.4071875 12.45980469 11.314375 13.73210938 11.21875 15.04296875 C11.1465625 16.01878906 11.074375 16.99460937 11 18 C10.67 18 10.34 18 10 18 C10 14.04 10 10.08 10 6 C8.35 6 6.7 6 5 6 C4.67 4.35 4.34 2.7 4 1 C2.68 0.67 1.36 0.34 0 0 Z " fill="#1F1F1F" transform="translate(120,34)"/>
<path d="M0 0 C3.4375 0.8125 3.4375 0.8125 7 2 C7.33 2.99 7.66 3.98 8 5 C9.65948148 6.01187895 11.32580562 7.0126546 13 8 C13 8.66 13 9.32 13 10 C13.66 10 14.32 10 15 10 C15 10.99 15 11.98 15 13 C8.76768519 10.11618766 4.04596676 5.50251479 0 0 Z " fill="#9495FB" transform="translate(17,26)"/>
<path d="M0 0 C1.30324219 -0.02126953 1.30324219 -0.02126953 2.6328125 -0.04296875 C4.875 0.1875 4.875 0.1875 6.875 2.1875 C6.08996094 2.22488281 5.30492188 2.26226563 4.49609375 2.30078125 C-2.54659622 2.66591768 -2.54659622 2.66591768 -9.1875 4.8125 C-12.125 6.1875 -12.125 6.1875 -15.125 5.1875 C-9.81202142 1.44426509 -6.43927081 0.04805426 0 0 Z " fill="#B7A3E7" transform="translate(31.125,17.8125)"/>
<path d="M0 0 C1.98 0 3.96 0 6 0 C6.042721 1.66611905 6.04063832 3.33382885 6 5 C5 6 5 6 2.4375 6.0625 C1.2309375 6.0315625 1.2309375 6.0315625 0 6 C0 4.02 0 2.04 0 0 Z " fill="#131313" transform="translate(149,46)"/>
<path d="M0 0 C0.99 0.33 1.98 0.66 3 1 C1.90536178 2.17561146 0.79892814 3.3402489 -0.3125 4.5 C-0.92738281 5.1496875 -1.54226562 5.799375 -2.17578125 6.46875 C-4 8 -4 8 -7 8 C-7.33 7.01 -7.66 6.02 -8 5 C-6.35 5 -4.7 5 -3 5 C-2.67 4.01 -2.34 3.02 -2 2 C-1.34 2 -0.68 2 0 2 C0 1.34 0 0.68 0 0 Z " fill="#116EE0" transform="translate(21,46)"/>
<path d="M0 0 C3.69418201 1.231394 5.35109746 3.20791354 8 6 C7.67 6.99 7.34 7.98 7 9 C6.67 8.01 6.34 7.02 6 6 C2.99152582 4.77479736 2.99152582 4.77479736 0 4 C0 2.68 0 1.36 0 0 Z " fill="#1E5AE8" transform="translate(22,32)"/>
<path d="M0 0 C2.475 0.495 2.475 0.495 5 1 C5.33 2.32 5.66 3.64 6 5 C6.66 5 7.32 5 8 5 C8.33 6.32 8.66 7.64 9 9 C7.87105124 8.06725891 6.74699124 7.12859878 5.625 6.1875 C4.99851562 5.66542969 4.37203125 5.14335938 3.7265625 4.60546875 C2 3 2 3 0 0 Z " fill="#D7FCFE" transform="translate(36,44)"/>
<path d="M0 0 C3.96 0 7.92 0 12 0 C12 0.33 12 0.66 12 1 C8.17679443 2.42258812 5.08718695 3.24042276 1 3 C0.67 2.01 0.34 1.02 0 0 Z " fill="#E5E5E5" transform="translate(104,44)"/>
<path d="M0 0 C0.33 0 0.66 0 1 0 C1 1.65 1 3.3 1 5 C1.99 5.33 2.98 5.66 4 6 C4 7.65 4 9.3 4 11 C3.34 10.01 2.68 9.02 2 8 C1.34 9.32 0.68 10.64 0 12 C0 8.04 0 4.08 0 0 Z " fill="#BDBDBD" transform="translate(145,40)"/>
<path d="M0 0 C2.31 0.66 4.62 1.32 7 2 C7.33 3.65 7.66 5.3 8 7 C4.2047869 5.50902342 2.38957269 3.24299151 0 0 Z " fill="#878FFC" transform="translate(17,26)"/>
<path d="M0 0 C0.66 0.33 1.32 0.66 2 1 C1.67 1.66 1.34 2.32 1 3 C1.66 3 2.32 3 3 3 C3 3.66 3 4.32 3 5 C-2.75 4.25 -2.75 4.25 -5 2 C-2.625 0.9375 -2.625 0.9375 0 0 Z " fill="#A896F7" transform="translate(20,22)"/>
<path d="M0 0 C2.31 1.98 4.62 3.96 7 6 C6.01 6.33 5.02 6.66 4 7 C4 6.34 4 5.68 4 5 C2.68 4.67 1.36 4.34 0 4 C0 2.68 0 1.36 0 0 Z " fill="#5BB8DA" transform="translate(30,39)"/>
<path d="M0 0 C2.4375 0.1875 2.4375 0.1875 5 1 C6.3125 3.0625 6.3125 3.0625 7 5 C4.0280615 3.87548273 1.66559313 2.77706209 -1 1 C-0.67 0.67 -0.34 0.34 0 0 Z " fill="#1A56EC" transform="translate(15,27)"/>
</svg>
